<mxfile host="app.diagrams.net" modified="2024-03-19T23:14:43.197Z" agent="Mozilla/5.0 (Windows NT 10.0; Win64; x64) AppleWebKit/537.36 (KHTML, like Gecko) Chrome/122.0.0.0 Safari/537.36" etag="AIzqgMzMz-8hQm0Gzm4u" version="24.0.2" type="device">
  <diagram name="PÃ¡gina-1" id="tG4gKfh2Rcvcx-JtPzdS">
    <mxGraphModel dx="1687" dy="878" grid="1" gridSize="10" guides="1" tooltips="1" connect="1" arrows="1" fold="1" page="1" pageScale="1" pageWidth="827" pageHeight="1169" math="0" shadow="0">
      <root>
        <mxCell id="0" />
        <mxCell id="1" parent="0" />
        <mxCell id="oaoh2aNcwrlBlIq6WkfK-6" value="AWS Cloud" style="sketch=0;outlineConnect=0;gradientColor=none;html=1;whiteSpace=wrap;fontSize=12;fontStyle=0;shape=mxgraph.aws4.group;grIcon=mxgraph.aws4.group_aws_cloud;strokeColor=#858B94;fillColor=#FFFFFF;verticalAlign=top;align=left;spacingLeft=30;fontColor=#858B94;dashed=0;" parent="1" vertex="1">
          <mxGeometry x="420" y="50" width="950" height="660" as="geometry" />
        </mxCell>
        <mxCell id="oaoh2aNcwrlBlIq6WkfK-30" value="VPC" style="sketch=0;outlineConnect=0;gradientColor=none;html=1;whiteSpace=wrap;fontSize=12;fontStyle=0;shape=mxgraph.aws4.group;grIcon=mxgraph.aws4.group_vpc;strokeColor=#B6BABF;fillColor=#FFFFFF;verticalAlign=top;align=left;spacingLeft=30;fontColor=#B6BABF;dashed=0;" parent="1" vertex="1">
          <mxGeometry x="450" y="90" width="890" height="430" as="geometry" />
        </mxCell>
        <mxCell id="wbJ7AK4Cjy9MFqET-5yj-14" value="Private subnet" style="points=[[0,0],[0.25,0],[0.5,0],[0.75,0],[1,0],[1,0.25],[1,0.5],[1,0.75],[1,1],[0.75,1],[0.5,1],[0.25,1],[0,1],[0,0.75],[0,0.5],[0,0.25]];outlineConnect=0;gradientColor=none;html=1;whiteSpace=wrap;fontSize=12;fontStyle=0;container=1;pointerEvents=0;collapsible=0;recursiveResize=0;shape=mxgraph.aws4.group;grIcon=mxgraph.aws4.group_security_group;grStroke=0;strokeColor=#00A4A6;fillColor=#E6F6F7;verticalAlign=top;align=left;spacingLeft=30;fontColor=#147EBA;dashed=0;" vertex="1" parent="1">
          <mxGeometry x="800" y="140" width="510" height="350" as="geometry" />
        </mxCell>
        <mxCell id="wbJ7AK4Cjy9MFqET-5yj-15" value="Network Load Balancer" style="sketch=0;outlineConnect=0;fontColor=#232F3E;gradientColor=none;strokeColor=#ffffff;fillColor=#232F3E;dashed=0;verticalLabelPosition=middle;verticalAlign=bottom;align=center;html=1;whiteSpace=wrap;fontSize=10;fontStyle=1;spacing=3;shape=mxgraph.aws4.productIcon;prIcon=mxgraph.aws4.network_load_balancer;" vertex="1" parent="wbJ7AK4Cjy9MFqET-5yj-14">
          <mxGeometry x="60" y="190.25" width="80" height="110" as="geometry" />
        </mxCell>
        <mxCell id="wbJ7AK4Cjy9MFqET-5yj-13" value="Public subnet" style="points=[[0,0],[0.25,0],[0.5,0],[0.75,0],[1,0],[1,0.25],[1,0.5],[1,0.75],[1,1],[0.75,1],[0.5,1],[0.25,1],[0,1],[0,0.75],[0,0.5],[0,0.25]];outlineConnect=0;gradientColor=none;html=1;whiteSpace=wrap;fontSize=12;fontStyle=0;container=1;pointerEvents=0;collapsible=0;recursiveResize=0;shape=mxgraph.aws4.group;grIcon=mxgraph.aws4.group_security_group;grStroke=0;strokeColor=#7AA116;fillColor=#F2F6E8;verticalAlign=top;align=left;spacingLeft=30;fontColor=#248814;dashed=0;" vertex="1" parent="1">
          <mxGeometry x="480" y="140" width="280" height="350" as="geometry" />
        </mxCell>
        <mxCell id="oaoh2aNcwrlBlIq6WkfK-20" style="edgeStyle=orthogonalEdgeStyle;rounded=0;orthogonalLoop=1;jettySize=auto;html=1;" parent="1" source="oaoh2aNcwrlBlIq6WkfK-4" target="oaoh2aNcwrlBlIq6WkfK-19" edge="1">
          <mxGeometry relative="1" as="geometry" />
        </mxCell>
        <mxCell id="oaoh2aNcwrlBlIq6WkfK-4" value="Devices" style="sketch=0;outlineConnect=0;gradientColor=none;fontColor=#545B64;strokeColor=none;fillColor=#000000;dashed=0;verticalLabelPosition=bottom;verticalAlign=top;align=center;html=1;fontSize=12;fontStyle=0;aspect=fixed;shape=mxgraph.aws4.illustration_devices;pointerEvents=1" parent="1" vertex="1">
          <mxGeometry x="270" y="348.29999999999995" width="98.49" height="71.9" as="geometry" />
        </mxCell>
        <mxCell id="oaoh2aNcwrlBlIq6WkfK-9" value="Amazon ECR" style="sketch=0;outlineConnect=0;fontColor=#232F3E;gradientColor=none;strokeColor=#ffffff;fillColor=#232F3E;dashed=0;verticalLabelPosition=middle;verticalAlign=bottom;align=center;html=1;whiteSpace=wrap;fontSize=10;fontStyle=1;spacing=3;shape=mxgraph.aws4.productIcon;prIcon=mxgraph.aws4.ecr;" parent="1" vertex="1">
          <mxGeometry x="1190" y="560" width="80" height="100" as="geometry" />
        </mxCell>
        <mxCell id="wbJ7AK4Cjy9MFqET-5yj-4" style="edgeStyle=orthogonalEdgeStyle;rounded=0;orthogonalLoop=1;jettySize=auto;html=1;" edge="1" parent="1" source="wbJ7AK4Cjy9MFqET-5yj-15" target="wbJ7AK4Cjy9MFqET-5yj-3">
          <mxGeometry relative="1" as="geometry">
            <mxPoint x="920" y="385.2941176470588" as="sourcePoint" />
          </mxGeometry>
        </mxCell>
        <mxCell id="oaoh2aNcwrlBlIq6WkfK-22" style="edgeStyle=orthogonalEdgeStyle;rounded=0;orthogonalLoop=1;jettySize=auto;html=1;" parent="1" source="oaoh2aNcwrlBlIq6WkfK-17" target="oaoh2aNcwrlBlIq6WkfK-9" edge="1">
          <mxGeometry relative="1" as="geometry" />
        </mxCell>
        <mxCell id="oaoh2aNcwrlBlIq6WkfK-32" style="edgeStyle=orthogonalEdgeStyle;rounded=0;orthogonalLoop=1;jettySize=auto;html=1;" parent="1" target="oaoh2aNcwrlBlIq6WkfK-31" edge="1" source="oaoh2aNcwrlBlIq6WkfK-17">
          <mxGeometry relative="1" as="geometry">
            <mxPoint x="1230" y="440.25" as="sourcePoint" />
          </mxGeometry>
        </mxCell>
        <mxCell id="oaoh2aNcwrlBlIq6WkfK-17" value="fast-food-api" style="sketch=0;outlineConnect=0;fontColor=#232F3E;gradientColor=none;strokeColor=#232F3E;fillColor=#ffffff;dashed=0;verticalLabelPosition=bottom;verticalAlign=top;align=center;html=1;fontSize=12;fontStyle=0;aspect=fixed;shape=mxgraph.aws4.resourceIcon;resIcon=mxgraph.aws4.container_1;" parent="1" vertex="1">
          <mxGeometry x="1200" y="355.25" width="60" height="60" as="geometry" />
        </mxCell>
        <mxCell id="oaoh2aNcwrlBlIq6WkfK-24" style="edgeStyle=orthogonalEdgeStyle;rounded=0;orthogonalLoop=1;jettySize=auto;html=1;" parent="1" source="oaoh2aNcwrlBlIq6WkfK-19" target="wbJ7AK4Cjy9MFqET-5yj-15" edge="1">
          <mxGeometry relative="1" as="geometry">
            <mxPoint x="840" y="385" as="targetPoint" />
          </mxGeometry>
        </mxCell>
        <mxCell id="wbJ7AK4Cjy9MFqET-5yj-2" style="edgeStyle=orthogonalEdgeStyle;rounded=0;orthogonalLoop=1;jettySize=auto;html=1;" edge="1" parent="1" source="oaoh2aNcwrlBlIq6WkfK-19" target="oaoh2aNcwrlBlIq6WkfK-28">
          <mxGeometry relative="1" as="geometry" />
        </mxCell>
        <mxCell id="oaoh2aNcwrlBlIq6WkfK-19" value="Amazon API Gateway" style="sketch=0;outlineConnect=0;fontColor=#232F3E;gradientColor=none;strokeColor=#ffffff;fillColor=#232F3E;dashed=0;verticalLabelPosition=middle;verticalAlign=bottom;align=center;html=1;whiteSpace=wrap;fontSize=10;fontStyle=1;spacing=3;shape=mxgraph.aws4.productIcon;prIcon=mxgraph.aws4.api_gateway;" parent="1" vertex="1">
          <mxGeometry x="580" y="330.25" width="80" height="110" as="geometry" />
        </mxCell>
        <mxCell id="oaoh2aNcwrlBlIq6WkfK-28" value="Amazon Cognito" style="sketch=0;outlineConnect=0;fontColor=#232F3E;gradientColor=none;strokeColor=#ffffff;fillColor=#232F3E;dashed=0;verticalLabelPosition=middle;verticalAlign=bottom;align=center;html=1;whiteSpace=wrap;fontSize=10;fontStyle=1;spacing=3;shape=mxgraph.aws4.productIcon;prIcon=mxgraph.aws4.cognito;" parent="1" vertex="1">
          <mxGeometry x="580" y="560" width="80" height="110" as="geometry" />
        </mxCell>
        <mxCell id="oaoh2aNcwrlBlIq6WkfK-31" value="Amazon&#xa;Aurora" style="sketch=0;outlineConnect=0;fontColor=#232F3E;gradientColor=none;strokeColor=#ffffff;fillColor=#232F3E;dashed=0;verticalLabelPosition=middle;verticalAlign=bottom;align=center;html=1;whiteSpace=wrap;fontSize=10;fontStyle=1;spacing=3;shape=mxgraph.aws4.productIcon;prIcon=mxgraph.aws4.aurora;" parent="1" vertex="1">
          <mxGeometry x="1190" y="170.25" width="80" height="110" as="geometry" />
        </mxCell>
        <mxCell id="wbJ7AK4Cjy9MFqET-5yj-5" style="edgeStyle=orthogonalEdgeStyle;rounded=0;orthogonalLoop=1;jettySize=auto;html=1;" edge="1" parent="1" source="wbJ7AK4Cjy9MFqET-5yj-3" target="oaoh2aNcwrlBlIq6WkfK-17">
          <mxGeometry relative="1" as="geometry" />
        </mxCell>
        <mxCell id="wbJ7AK4Cjy9MFqET-5yj-3" value="Amazon EKS" style="sketch=0;outlineConnect=0;fontColor=#232F3E;gradientColor=none;strokeColor=#ffffff;fillColor=#232F3E;dashed=0;verticalLabelPosition=middle;verticalAlign=bottom;align=center;html=1;whiteSpace=wrap;fontSize=10;fontStyle=1;spacing=3;shape=mxgraph.aws4.productIcon;prIcon=mxgraph.aws4.eks;" vertex="1" parent="1">
          <mxGeometry x="1030" y="334.25" width="80" height="100" as="geometry" />
        </mxCell>
      </root>
    </mxGraphModel>
  </diagram>
</mxfile>
